<?xml version="1.0" encoding="utf-8"?>
<!-- Generator: Adobe Illustrator 15.1.0, SVG Export Plug-In . SVG Version: 6.00 Build 0)  -->
<!DOCTYPE svg PUBLIC "-//W3C//DTD SVG 1.1//EN" "http://www.w3.org/Graphics/SVG/1.1/DTD/svg11.dtd">
<svg version="1.1" id="Layer_1" xmlns="http://www.w3.org/2000/svg" xmlns:xlink="http://www.w3.org/1999/xlink" x="0px" y="0px"
	 width="901px" height="901px" viewBox="0 0 901 901" enable-background="new 0 0 901 901" xml:space="preserve">
<g>
	<path fill-rule="evenodd" clip-rule="evenodd" fill="#BE9955" d="M463.195,882.524c-17,0-34,0-51,0c0-0.333,0-0.667,0-1
		c-55.614-4.138-100.763-13.218-140-34c-19.742-10.456-40.947-26.768-61-41c-21.19-15.039-38.63-30.988-53-50
		c-14.646-19.376-29.071-39.924-45-57c-16.974-18.196-37.732-31.602-52-51c-17.218-23.409-21.151-51.213-28-84
		c-2.983-14.283-5.754-28.815-8-43c-9.938-62.758-7.552-133.964,10-184c9.078-25.878,15.172-52.314,25-78
		c18.671-48.797,56.126-81.47,91-114c9.13-8.517,16.918-16.766,27-24c9.949-7.139,20.804-12.971,32-20
		c21.235-13.333,39.199-32.035,59-44c25.088-15.16,62.264-18.258,95-25c36.299-7.477,70.938-14.713,107-14
		c36.518,0.722,70.334,9.565,103,18c33.939,8.763,62.141,20.04,87,34c26.069,14.64,52.467,27.783,74,47
		c20.609,18.394,35.839,42.41,56,65c20.255,22.695,36.332,43.652,51,70c15.345,27.563,22.582,57.063,28,93
		c10.797,71.613,20.009,150.442-2,216c-20.013,59.611-42.706,117.977-81,161c-18.398,20.671-41.874,38.032-64,57
		c-21.518,18.445-42.093,40.075-65,56c-26.447,18.386-55.977,23.637-91,30C534.956,871.382,500.608,881.646,463.195,882.524z
		 M368.195,196.524c-23.59,8.757-42.734,16.864-60,29c-35.789,25.156-71.404,55.211-91,87c-44.432,72.08-40.942,221.525,6,285
		c11.356,15.355,27.737,27.838,42,41c15.607,14.403,27.931,29.3,44,40c37.558,25.011,90.77,40.94,149,36
		c24.265-2.059,53.678-6.681,80-14c25.075-6.973,51.524-13.412,70-24c35.473-20.329,53.729-53.447,75-89
		c13.125-21.938,25.092-46.466,30-73c5.453-29.485,4.494-66.666,4-99c-1.002-65.639-33.579-103.344-64-141
		c-15.442-19.115-30.707-37.279-53-50c-21.684-12.373-47.577-19.201-73-30c-26.121-11.095-55.26-18.482-87-16
		C414.135,180.563,390.151,188.374,368.195,196.524z"/>
</g>
</svg>
