<?xml version="1.0" encoding="utf-8"?>
<!-- Generator: Adobe Illustrator 15.1.0, SVG Export Plug-In . SVG Version: 6.00 Build 0)  -->
<!DOCTYPE svg PUBLIC "-//W3C//DTD SVG 1.1//EN" "http://www.w3.org/Graphics/SVG/1.1/DTD/svg11.dtd">
<svg version="1.1" id="Layer_1" xmlns="http://www.w3.org/2000/svg" xmlns:xlink="http://www.w3.org/1999/xlink" x="0px" y="0px"
	 width="191px" height="190px" viewBox="0 0 191 190" enable-background="new 0 0 191 190" xml:space="preserve">
<g>
	<path fill-rule="evenodd" clip-rule="evenodd" d="M127.315,1.581c3.543,0,7.087,0,10.631,0c13.327,1.491,27.714,1.921,42.521,1.933
		c8.685,3.608,8.127,16.263,8.699,28.348c1.081,22.888-4.054,40.663-2.578,62.816c0.487,7.305,1.821,13.927,1.61,20.617
		c-0.212,6.769-1.087,13.252-1.61,20.294c-0.493,6.617-0.087,14.348,0.322,21.261c0.708,11.974,2.863,24.539-5.798,28.026
		c-3.67,1.478-10.21,1.143-15.463,1.289c-16.252,0.452-33.479-0.607-49.288,0.322c-21.469,1.261-43.409-0.589-63.46,1.932
		c-3.866,0-7.731,0-11.597,0c-8.447-1.913-19.133,0.311-27.06-1.932c-2.988-0.847-6.951-4.721-7.731-7.731
		c-0.835-3.223,0.127-8.45,0.322-12.563c0.625-13.21-2.28-25.615-2.899-37.689C3.191,113.943,4.582,98.93,4.582,84.37
		c0-14.831-1.485-28.862-2.899-41.878c0-2.792,0-5.583,0-8.375c0.469-7.369,1.293-14.384,1.288-22.228
		c2.492-3.383,4.642-7.547,9.02-8.375c4.264-0.807,9.586-0.152,14.496-0.322c4.671-0.162,9.7-0.453,14.496-0.645
		C71.248,1.337,101.336,5.819,127.315,1.581z"/>
</g>
</svg>
