<?xml version="1.0" encoding="utf-8"?>
<!-- Generator: Adobe Illustrator 15.1.0, SVG Export Plug-In . SVG Version: 6.00 Build 0)  -->
<!DOCTYPE svg PUBLIC "-//W3C//DTD SVG 1.1//EN" "http://www.w3.org/Graphics/SVG/1.1/DTD/svg11.dtd">
<svg preserveAspectRatio="none" version="1.1" id="Layer_1" xmlns="http://www.w3.org/2000/svg" xmlns:xlink="http://www.w3.org/1999/xlink" x="0px" y="0px"
	 width="1877.802px" height="358.386px" viewBox="0 0 1877.802 358.386" enable-background="new 0 0 1877.802 358.386"
	 xml:space="preserve">
<path fill-rule="evenodd" clip-rule="evenodd" d="M1420.664,5.714c29.33,0,58.66,0,87.988,0c93.383,2.439,203.35,3,305.963,3
	c14.816,0,33.082-1.836,40.994,3c29.768,18.191,6.217,84.168,15.998,122.985c0,2.666,0,5.332,0,8
	c-3.936,39.973-6,88.922-5.998,137.982c0,15.885,3.383,33.746-1,44.994c-2.688,6.893-7.264,10.928-12,13.998
	c-11.982,7.771-52.135,3.006-72.99,4c-26.496,1.262-52.164,4.004-75.99,3c-24.492-1.033-48.734-4.576-72.99-6
	c-76.793-4.512-156.748,5.07-228.973,4c-53.793-0.797-102.875,1.848-148.98,7.998c-9.332,0-18.665,0-27.997,0c0-0.332,0-0.666,0-1
	c-85.451-10.467-181.415-15.396-275.966-10.998c-24.726,1.15-48.661,0-71.991,0c-43.783,0-90,11.979-132.983,8.998
	c-21.712-1.504-42.65-7.592-64.992-7.998c-25.732-0.469-52.291,3.873-78.99,5c-26.96,1.135-54.166-0.736-81.99-2
	c-137.072-6.227-275.167-3-412.949-3c-21.649,0-64.86,6.918-80.99,0c-24.455-10.488-16.542-57.381-15.998-92.988
	c0.968-63.361-3.297-126.863,1-184.978c0.969-13.103,0.817-27.771,4-34.995c2.727-6.191,11.928-13.886,16.998-15.998
	c17.642-7.352,60.195-1.718,85.989-1c31.082,0.865,60.309-2.739,85.989-4c59.435-2.918,114.298,5.518,171.979,2
	c58.519-3.569,114.437-1.381,171.979,2c57.253,3.363,116.069-2,175.978-2c58.458,0,117.531,2.852,175.978-1
	c58.677-3.867,116.625,4.293,173.979,2C1189.876,5.991,1309.807,18.638,1420.664,5.714z"/>
</svg>
