<svg version="1.2" xmlns="http://www.w3.org/2000/svg" viewBox="0 0 180 180" width="180" height="180">
	<title>telegram-svg</title>
	<style>
		.s0 { fill: #000000 } 
	</style>
	<g id="Layer">
		<path id="Layer" class="s0" d="m5.9 84.4c17.5-9.7 37.1-17.8 55.4-25.9 31.5-13.3 63-26.4 95-38.5 6.2-2.1 17.3-4.1 18.5 5.1-0.7 13-3 26-4.8 38.9-4.2 28.5-9.2 56.9-14.1 85.3-1.6 9.4-13.5 14.3-21.1 8.2-18.3-12.3-36.5-24.5-54.5-37-5.9-6-0.4-14.6 4.8-18.9 15-14.7 30.9-27.4 45.2-42.8 3.8-9.3-7.5-1.5-11.3 0.8-20.5 14.2-40.5 29.2-62.3 41.7-11 6.1-24 0.8-35-2.5-9.8-4.1-24.3-8.2-15.8-14.4z"/>
	</g>
</svg>