<svg xmlns="http://www.w3.org/2000/svg" width="256" height="256" viewBox="0 0 256 256">
    
    <defs>
      <filter id="glow" x="-50%" y="-50%" width="200%" height="200%">
        <feGaussianBlur stdDeviation="12" result="blur"/>
        <feMerge><feMergeNode in="blur"/><feMergeNode in="SourceGraphic"/></feMerge>
      </filter>
    </defs>
    
    <rect width="100%" height="100%" fill="none"/>
    <g filter="url(#glow)">
      <path d="M 128 38.0 C 216.0 108.0, 192.0 148.0, 128 198.0 C 64.0 148.0, 40.0 108.0, 128 38.0 Z" fill="#FF6B6B" stroke="#C44545" stroke-width="6"/>
    </g>
    <path d="M 128 60.5 C 194.0 113.0, 176.0 143.0, 128 180.5 C 80.0 143.0, 62.0 113.0, 128 60.5 Z" fill="white" opacity="0.07"/>
    <ellipse cx="170" cy="86" rx="16" ry="10" fill="white" opacity="0.6"/>
    <ellipse cx="100" cy="125" rx="10" ry="13" fill="#FFFFFF"/><circle cx="100" cy="127" r="5" fill="#0F2545"/><ellipse cx="156" cy="125" rx="10" ry="13" fill="#FFFFFF"/><circle cx="156" cy="127" r="5" fill="#0F2545"/><path d="M93.0 165 Q 128 187 163.0 165" stroke="#0F2545" stroke-width="6" fill="none" stroke-linecap="round"/>
    </svg>